<svg width="25" height="23" viewBox="0 0 25 23" fill="none" xmlns="http://www.w3.org/2000/svg">
<path d="M6.42248 17.6621L12.0421 8.02843L12.0421 0.00032948L0 22.479L6.42248 17.6621Z" fill="black"/>
<path d="M12.0421 8.02843L17.6618 17.6621L24.0843 22.479L12.0421 0.00032948L12.0421 8.02843Z" fill="#F9B290"/>
<path d="M12.0421 17.6621H6.42248L0 22.479H24.0843L17.6618 17.6621H12.0421Z" fill="#4285F4"/>
<path d="M17.6618 17.6621L12.0421 8.02843L6.42248 17.6621H12.0421H17.6618Z" fill="white"/>
<path d="M6.42248 17.6621L12.0421 8.02843M6.42248 17.6621H12.0421H17.6618M6.42248 17.6621L0 22.479M17.6618 17.6621L12.0421 8.02843M17.6618 17.6621L24.0843 22.479M12.0421 8.02843L12.0421 0.00032948M0 22.479H24.0843M0 22.479L12.0421 0.00032948M24.0843 22.479L12.0421 0.00032948" stroke="#F26522" stroke-width="0.00583862"/>
</svg>
