<svg width="56" height="57" viewBox="0 0 56 57" fill="none" xmlns="http://www.w3.org/2000/svg">
<rect x="4" y="4.73438" width="48" height="48" rx="24" fill="#DFEBFF"/>
<rect x="4" y="4.73438" width="48" height="48" rx="24" stroke="#F1F6FF" stroke-width="8"/>
<path d="M37 28.2344C37.0034 29.5543 36.6951 30.8563 36.1 32.0344C35.3944 33.4461 34.3098 34.6336 32.9674 35.4637C31.6251 36.2938 30.0782 36.7338 28.5 36.7344C27.1801 36.7378 25.8781 36.4295 24.7 35.8344L19 37.7344L20.9 32.0344C20.3049 30.8563 19.9966 29.5543 20 28.2344C20.0006 26.6562 20.4406 25.1093 21.2707 23.767C22.1008 22.4247 23.2883 21.34 24.7 20.6344C25.8781 20.0393 27.1801 19.731 28.5 19.7344H29C31.0843 19.8494 33.053 20.7292 34.5291 22.2053C36.0052 23.6814 36.885 25.6501 37 27.7344V28.2344Z" stroke="#4285F4" stroke-width="2" stroke-linecap="round" stroke-linejoin="round"/>
</svg>
