<svg width="56" height="57" viewBox="0 0 56 57" fill="none" xmlns="http://www.w3.org/2000/svg">
<rect x="4" y="4.73438" width="48" height="48" rx="24" fill="#DFEBFF"/>
<rect x="4" y="4.73438" width="48" height="48" rx="24" stroke="#F1F6FF" stroke-width="8"/>
<path d="M34 19.7344C33.2044 19.7344 32.4413 20.0504 31.8787 20.6131C31.3161 21.1757 31 21.9387 31 22.7344V34.7344C31 35.53 31.3161 36.2931 31.8787 36.8557C32.4413 37.4183 33.2044 37.7344 34 37.7344C34.7956 37.7344 35.5587 37.4183 36.1213 36.8557C36.6839 36.2931 37 35.53 37 34.7344C37 33.9387 36.6839 33.1757 36.1213 32.6131C35.5587 32.0504 34.7956 31.7344 34 31.7344H22C21.2044 31.7344 20.4413 32.0504 19.8787 32.6131C19.3161 33.1757 19 33.9387 19 34.7344C19 35.53 19.3161 36.2931 19.8787 36.8557C20.4413 37.4183 21.2044 37.7344 22 37.7344C22.7956 37.7344 23.5587 37.4183 24.1213 36.8557C24.6839 36.2931 25 35.53 25 34.7344V22.7344C25 21.9387 24.6839 21.1757 24.1213 20.6131C23.5587 20.0504 22.7956 19.7344 22 19.7344C21.2044 19.7344 20.4413 20.0504 19.8787 20.6131C19.3161 21.1757 19 21.9387 19 22.7344C19 23.53 19.3161 24.2931 19.8787 24.8557C20.4413 25.4183 21.2044 25.7344 22 25.7344H34C34.7956 25.7344 35.5587 25.4183 36.1213 24.8557C36.6839 24.2931 37 23.53 37 22.7344C37 21.9387 36.6839 21.1757 36.1213 20.6131C35.5587 20.0504 34.7956 19.7344 34 19.7344Z" stroke="#4285F4" stroke-width="2" stroke-linecap="round" stroke-linejoin="round"/>
</svg>
