<svg width="25" height="24" viewBox="0 0 25 24" fill="none" xmlns="http://www.w3.org/2000/svg">
<path d="M12.1665 15.5C14.3765 15.5 16.1665 13.71 16.1665 11.5V6C16.1665 3.79 14.3765 2 12.1665 2C9.9565 2 8.1665 3.79 8.1665 6V11.5C8.1665 13.71 9.9565 15.5 12.1665 15.5Z" stroke="#292D32" stroke-width="1.5" stroke-linecap="round" stroke-linejoin="round"/>
<path d="M4.5166 9.65039V11.3504C4.5166 15.5704 7.9466 19.0004 12.1666 19.0004C16.3866 19.0004 19.8166 15.5704 19.8166 11.3504V9.65039" stroke="#292D32" stroke-width="1.5" stroke-linecap="round" stroke-linejoin="round"/>
<path d="M10.7764 6.43012C11.6764 6.10012 12.6564 6.10012 13.5564 6.43012" stroke="#292D32" stroke-width="1.5" stroke-linecap="round" stroke-linejoin="round"/>
<path d="M11.3667 8.55031C11.8967 8.41031 12.4467 8.41031 12.9767 8.55031" stroke="#292D32" stroke-width="1.5" stroke-linecap="round" stroke-linejoin="round"/>
<path d="M12.1665 19V22" stroke="#292D32" stroke-width="1.5" stroke-linecap="round" stroke-linejoin="round"/>
</svg>
