<svg width="21" height="21" viewBox="0 0 21 21" fill="none" xmlns="http://www.w3.org/2000/svg">
<path d="M0.820312 20.7343L2.22578 15.5992C1.03233 13.5253 0.629256 11.0894 1.091 8.74142C1.55274 6.39339 2.84811 4.29186 4.73783 2.82501C6.62756 1.35815 8.98398 0.62507 11.3718 0.761165C13.7597 0.89726 16.0177 1.89334 17.7287 3.56542C19.4397 5.2375 20.4882 7.47261 20.6804 9.85791C20.8727 12.2432 20.1958 14.6176 18.7747 16.5424C17.3536 18.4672 15.2843 19.8125 12.9491 20.3297C10.6139 20.8469 8.17056 20.5011 6.07031 19.3562M3.19922 18.3828L6.31641 17.5625C8.03189 18.677 10.1008 19.1131 12.1202 18.786C14.1396 18.4589 15.965 17.392 17.2409 15.7929C18.5169 14.1939 19.152 12.1772 19.0228 10.1356C18.8935 8.09395 18.009 6.1735 16.5416 4.74817C15.0741 3.32285 13.1287 2.49467 11.0842 2.4249C9.03964 2.35513 7.04232 3.04877 5.48111 4.37074C3.9199 5.69272 2.90657 7.54841 2.63842 9.57648C2.37026 11.6046 2.86649 13.6598 4.03047 15.3421M9.11641 8.39683C9.22578 8.67027 9.11641 8.94371 8.51484 9.6109C8.18672 9.93902 8.29609 10.0484 8.87578 10.8687C9.45547 11.689 10.407 12.4546 11.282 12.8648C12.157 13.275 12.1023 13.2476 12.4688 12.8101C13.2891 11.8804 13.0703 11.6617 13.8906 12.0336L15.3672 12.7445C15.8047 12.9632 15.8266 12.9632 15.832 13.2367C15.8375 13.5101 15.7391 14.2211 15.4492 14.5273C15.1594 14.8336 14.082 15.8836 12.168 15.1836C10.2539 14.4836 8.94141 13.9257 6.75391 10.9726C4.56641 8.01949 6.66641 6.26949 6.95078 6.16011C7.23516 6.05074 7.33359 6.07808 7.88047 6.08902C8.0263 6.08902 8.15391 6.18017 8.26328 6.36246" fill="#25D366"/>
</svg>
